<svg version="1.1" id="Layer_1" xmlns="http://www.w3.org/2000/svg" x="0" y="0" viewBox="0 0 595.28 841.89" style="enable-background:new 0 0 595.28 841.89" xml:space="preserve"><style>.st1{fill:#f07f17}</style><path d="M218.66 420.94s-15.58-76.22 8.42-120.22c0 0 7.79-75.82 15.33-96.29 0 0 33.67 59.29 51.67 74.29 0 0 33.65-18.53 57.36-8.87 0 0 16.87 9.18 28.16 12.92 0 0 26.5-1.78 35.5-5.75 0 0 18.95 22.42 20.63 26.63 0 0 13.09 14.49 11.54 36.88 0 0-2.32 67.61-92.47 116.78 0 0-.12 33.37-.59 91.68h-136.5c0 .01 0-70.6.95-128.05z" style="fill:none;stroke:#f07f17;stroke-width:18;stroke-miterlimit:10"/><path class="st1" d="M221.34 452.9s36.34 13.22 62.63 0c0 0-13.92 21.48-62.63 17.35V452.9zM221.34 483.93s36.34 13.22 62.63 0c0 0-13.92 21.48-62.63 17.35v-17.35zM221.34 514.95s36.34 13.22 62.63 0c0 0-13.92 21.48-62.63 17.35v-17.35z"/><circle cx="309.77" cy="382.76" r="262.76" style="fill:none;stroke:#f07f17;stroke-width:19;stroke-miterlimit:10"/></svg>