<svg xmlns="http://www.w3.org/2000/svg" viewBox="0 0 77.82 105.24"><defs><style>.cls-1{fill:#f4f3f1}.cls-2{fill:#f9c3d3}.cls-4{fill:#482e1f}</style></defs><g id="Layer_2" data-name="Layer 2"><g id="Layer_1-2" data-name="Layer 1"><path class="cls-1" d="m9.77.62 37.59 21.7L2.91 48V4.58a4.57 4.57 0 0 1 6.86-4"/><path class="cls-2" d="m9.27 7.66 25.38 14.66L9.27 36.98V7.66z"/><path class="cls-1" d="m68.05.62-37.58 21.7L74.91 48V4.58a4.57 4.57 0 0 0-6.86-4"/><path class="cls-2" d="M68.56 7.66v29.32L43.17 22.32 68.56 7.66z"/><path class="cls-1" d="M38.91 105.24C11.33 105.24 0 92 0 59.9s11.33-45.34 38.91-45.34 38.91 13.2 38.91 45.34-11.32 45.34-38.91 45.34"/><path d="M61 38.57a12.18 12.18 0 1 0 12.16 12.18A12.19 12.19 0 0 0 61 38.57" style="fill:#adaaa3"/><path class="cls-4" d="M22.67 50.75a5.83 5.83 0 1 0-5.83 5.82 5.83 5.83 0 0 0 5.83-5.82M66.81 50.75A5.83 5.83 0 1 0 61 56.57a5.83 5.83 0 0 0 5.83-5.82M22.67 71.13c0 7.84 7.27 14.2 16.24 14.2S55.16 79 55.16 71.13Z"/><path d="M44.17 80.17a7.28 7.28 0 0 0-5.26 2.25 7.25 7.25 0 0 0-9.12-1.13v5.35a9.13 9.13 0 0 0 18.25 0v-5.35a7.32 7.32 0 0 0-3.87-1.12" style="fill:#f06992"/><path class="cls-4" d="M41.71 56.57h-5.59a4.15 4.15 0 0 0-4 5.11l.75 3.32a4.15 4.15 0 0 0 4 3.19h4A4.14 4.14 0 0 0 45 65l.8-3.35a4.16 4.16 0 0 0-4-5.11"/></g></g></svg>