<svg xmlns="http://www.w3.org/2000/svg" viewBox="0 0 95.69 96.51"><defs><style>.cls-2{fill:#7c5e49}.cls-3{fill:#482e1f}</style></defs><g id="Layer_2" data-name="Layer 2"><g id="Layer_1-2" data-name="Layer 1"><path d="M47.85 90.68c-27.59 0-38.92-13.2-38.92-45.34S20.26 0 47.85 0s38.91 13.2 38.91 45.34-11.33 45.34-38.91 45.34" style="fill:#b79076"/><path class="cls-2" d="M82.76 70c0 14.64-15.63 26.52-34.91 26.52S12.93 84.63 12.93 70s15.63-26.53 34.92-26.53S82.76 55.34 82.76 70M23.54 3.27A3.26 3.26 0 0 0 18 1L0 19a11.77 11.77 0 0 0 23.54 0ZM72.15 3.27A3.26 3.26 0 0 1 77.72 1l18 18a11.77 11.77 0 0 1-23.54 0Z"/><path class="cls-3" d="M31.6 36.19A5.83 5.83 0 1 0 25.78 42a5.83 5.83 0 0 0 5.82-5.82M75.74 36.19A5.83 5.83 0 1 0 69.91 42a5.83 5.83 0 0 0 5.83-5.82M31.6 56.57c0 7.85 7.27 14.21 16.25 14.21s16.24-6.36 16.24-14.21Z"/><path d="M53.1 65.61a7.24 7.24 0 0 0-5.25 2.25 7.26 7.26 0 0 0-9.13-1.13v5.35a9.13 9.13 0 0 0 18.25 0v-5.35a7.27 7.27 0 0 0-3.87-1.12" style="fill:#f06992"/><path class="cls-3" d="M50.41 52.28 54 46.76A3.06 3.06 0 0 0 51.48 42h-7.27a3.06 3.06 0 0 0-2.56 4.75l3.64 5.52a3.06 3.06 0 0 0 5.12 0"/></g></g></svg>