<svg xmlns="http://www.w3.org/2000/svg" viewBox="0 0 97.46 105.24"><defs><style>.cls-1{fill:#f4f3f1}.cls-2{fill:#f9c3d3}.cls-3{fill:#482e1f}</style></defs><g id="Layer_2" data-name="Layer 2"><g id="Layer_1-2" data-name="Layer 1"><path class="cls-1" d="M17.41.62 55 22.32 10.55 48V4.58a4.57 4.57 0 0 1 6.86-4"/><path class="cls-2" d="m16.9 7.66 25.38 14.66L16.9 36.98V7.66z"/><path class="cls-1" d="m81.51.62-37.59 21.7L88.37 48V4.58a4.57 4.57 0 0 0-6.86-4"/><path class="cls-2" d="M82.02 7.66v29.32L56.63 22.32 82.02 7.66z"/><path class="cls-1" d="M49.46 105.24C17.74 105.24 4.72 92 4.72 59.9s13-45.34 44.74-45.34 44.73 13.2 44.73 45.34-13 45.34-44.73 45.34"/><path class="cls-1" d="M83.74 38.53v40H95.5a2 2 0 0 0 1.84-2.63Z"/><path class="cls-1" d="M82.28 50.18v40H94a2 2 0 0 0 1.84-2.63ZM13.72 26.88v40H2a2 2 0 0 1-1.88-2.63Z"/><path class="cls-1" d="M15.18 38.53v40H3.42a2 2 0 0 1-1.84-2.63Z"/><path class="cls-1" d="M16.63 50.18v40H4.87A2 2 0 0 1 3 87.55Z"/><path class="cls-3" d="M33.21 48.25a5.83 5.83 0 1 0-5.82 5.83 5.83 5.83 0 0 0 5.82-5.83M77.35 48.25a5.83 5.83 0 1 0-5.82 5.83 5.83 5.83 0 0 0 5.82-5.83M33.21 68.64c0 7.84 7.28 14.2 16.25 14.2s16.24-6.36 16.24-14.2Z"/><path d="M54.72 77.68a7.23 7.23 0 0 0-5.26 2.25 7.26 7.26 0 0 0-9.13-1.13v5.34a9.13 9.13 0 1 0 18.25 0V78.8a7.18 7.18 0 0 0-3.86-1.12" style="fill:#f06992"/><path class="cls-3" d="m52 64.34 3.63-5.51a3.06 3.06 0 0 0-2.56-4.75h-7.25a3.06 3.06 0 0 0-2.56 4.75l3.64 5.51a3.06 3.06 0 0 0 5.12 0"/></g></g></svg>