<svg xmlns="http://www.w3.org/2000/svg" viewBox="0 0 95.69 100.97"><defs><style>.cls-2{fill:#adaaa3}.cls-3{fill:#6a635c}.cls-4{fill:#482e1f}</style></defs><g id="Layer_2" data-name="Layer 2"><g id="Layer_1-2" data-name="Layer 1"><path d="M47.84 95.15C20.26 95.15 8.93 82 8.93 49.81S20.26 4.47 47.84 4.47s38.92 13.2 38.92 45.34-11.33 45.34-38.92 45.34" style="fill:#827971"/><path class="cls-2" d="m86.76 74.45-6.1 6.1H15l-6.1-6.1c0-14.64 17.42-26.51 38.91-26.51s38.95 11.87 38.95 26.51"/><path class="cls-2" d="M69.84 74.45v18.07a8.46 8.46 0 0 0 16.92 0V74.45Z"/><path class="cls-2" d="M54.62 74.45v18.07a8.46 8.46 0 0 0 16.91 0V74.45Z"/><path class="cls-2" d="M39.39 74.45v18.07a8.46 8.46 0 0 0 16.91 0V74.45Z"/><path class="cls-2" d="M24.16 74.45v18.07a8.46 8.46 0 0 0 16.91 0V74.45Z"/><path class="cls-2" d="M8.93 74.45v18.07a8.46 8.46 0 0 0 16.92 0V74.45Z"/><path class="cls-3" d="M0 28.15V6.53A6.54 6.54 0 0 1 6.53 0h21.62a3.27 3.27 0 0 1 2.31 5.58L5.58 30.46A3.27 3.27 0 0 1 0 28.15M95.69 28.15V6.53A6.54 6.54 0 0 0 89.15 0H67.54a3.27 3.27 0 0 0-2.31 5.58l24.88 24.88a3.27 3.27 0 0 0 5.58-2.31"/><path class="cls-4" d="M31.6 40.65a5.83 5.83 0 1 0-5.83 5.83 5.83 5.83 0 0 0 5.83-5.83M75.74 40.65a5.83 5.83 0 1 0-5.83 5.83 5.83 5.83 0 0 0 5.83-5.83M52.21 61.08l4.28-6.5a5.23 5.23 0 0 0-4.37-8.1h-8.56a5.22 5.22 0 0 0-4.36 8.1l4.28 6.5a5.22 5.22 0 0 0 8.73 0M31.6 66.35c0 7.84 7.27 14.2 16.24 14.2s16.25-6.36 16.25-14.2Z"/><path d="M53.1 75.39a7.25 7.25 0 0 0-5.26 2.25 7.25 7.25 0 0 0-9.12-1.13v5.34a9.13 9.13 0 1 0 18.25 0v-5.34a7.21 7.21 0 0 0-3.87-1.12" style="fill:#f06992"/></g></g></svg>