<svg xmlns="http://www.w3.org/2000/svg" viewBox="0 0 98.92 101.58"><defs><style>.cls-1{fill:#d4744a}.cls-2{fill:#f9c3d3}.cls-3{fill:#482e1f}</style></defs><g id="Layer_2" data-name="Layer 2"><g id="Layer_1-2" data-name="Layer 1"><path class="cls-1" d="M17.41.62 55 22.32 10.55 48V4.58a4.57 4.57 0 0 1 6.86-4"/><path class="cls-2" d="m16.9 7.66 25.39 14.66L16.9 36.98V7.66z"/><path class="cls-1" d="m81.51.62-37.59 21.7L88.37 48V4.58a4.57 4.57 0 0 0-6.86-4"/><path class="cls-2" d="M82.02 7.66v29.32L56.63 22.32 82.02 7.66z"/><path class="cls-1" d="M49.46 15.56a43 43 0 1 0 43 43 43 43 0 0 0-43-43"/><path class="cls-1" d="M85.19 26.92v40H97a2 2 0 0 0 1.85-2.63Z"/><path class="cls-1" d="M83.74 38.57v40H95.5a2 2 0 0 0 1.84-2.63Z"/><path class="cls-1" d="m67.72 90.22 14.56-40 13.6 37.38A2 2 0 0 1 94 90.22ZM13.72 26.92v40H2a2 2 0 0 1-1.88-2.63Z"/><path class="cls-1" d="M15.18 38.57v40H3.42a2 2 0 0 1-1.84-2.63Z"/><path class="cls-1" d="m31.19 90.22-14.56-40L3 87.59a2 2 0 0 0 1.84 2.63Z"/><path class="cls-3" d="M57.13 55.59c0 3.22-3.44 5.82-7.67 5.82s-7.67-2.6-7.67-5.82 3.43-5.82 7.67-5.82 7.67 2.6 7.67 5.82M33.21 46.85a5.83 5.83 0 1 0-5.82 5.83 5.83 5.83 0 0 0 5.82-5.83M77.35 46.85a5.83 5.83 0 1 0-5.82 5.83 5.83 5.83 0 0 0 5.82-5.83M33.21 64.32c0 7.85 7.28 14.21 16.25 14.21S65.7 72.17 65.7 64.32Z"/><path d="M54.71 73.37a7.22 7.22 0 0 0-5.25 2.25 7.26 7.26 0 0 0-9.13-1.13v5.34a9.13 9.13 0 0 0 18.25 0v-5.34a7.18 7.18 0 0 0-3.87-1.12" style="fill:#f06992"/></g></g></svg>